<svg xmlns="http://www.w3.org/2000/svg" viewBox="0 0 512 512">
  <defs>
    <linearGradient id="bg" x1="0" y1="0" x2="0" y2="1">
      <stop offset="0" stop-color="#14503b"/>
      <stop offset="1" stop-color="#0a2a20"/>
    </linearGradient>
  </defs>
  <rect width="512" height="512" rx="112" fill="url(#bg)"/>
  <g transform="rotate(-6 256 256)">
    <rect x="132" y="92" width="248" height="328" rx="22" fill="#f4f6f3"/>
    <rect x="150" y="110" width="212" height="292" rx="12" fill="#d9ded9"/>
    <rect x="232" y="128" width="116" height="44" rx="22" fill="#3f4442"/>
    <rect x="254" y="144" width="42" height="12" rx="6" fill="#fff"/>
    <rect x="304" y="140" width="26" height="20" rx="6" fill="#fff"/>
    <rect x="166" y="140" width="54" height="10" rx="5" fill="#8e9892"/>
  </g>
  <path d="M96 96v-8a28 28 0 0 1 28-28h8M416 96v-8a28 28 0 0 0-28-28h-8M96 416v8a28 28 0 0 0 28 28h8M416 416v8a28 28 0 0 1-28 28h-8" fill="none" stroke="#f5c518" stroke-width="18" stroke-linecap="round"/>
</svg>
